<svg id="Layer_1" data-name="Layer 1" xmlns="http://www.w3.org/2000/svg" xmlns:xlink="http://www.w3.org/1999/xlink" viewBox="0 0 511.86 507"><defs><style>.cls-1{fill:none;}.cls-2{fill:#307abc;}.cls-3{clip-path:url(#clip-path);}.cls-4{fill:#fff;}</style><clipPath id="clip-path" transform="translate(-6.5 -6.5)"><circle class="cls-1" cx="260" cy="260" r="253.5"/></clipPath></defs><circle class="cls-2" cx="253.5" cy="253.5" r="253.5"/><g class="cls-3"><path class="cls-4" d="M237.68,282.51c-7.83,16.38-21.28,29.44-35.85,40.26a214.2,214.2,0,0,1-45,25.63c-9.91,4.15-27,2-34.81,9.36-10.62,10-12.65,56.55-9.87,61.33,2.27,3.92,7,7.69,5.22,11.86-1.26,3-5.28,3.71-8.41,2.91-5.49-1.42-9.68-6.11-11.92-11.32s-2.86-11-3.45-16.6q-2.55-24.65-5.11-49.28c-.28-2.69-.55-5.47.33-8a15.89,15.89,0,0,1,4.65-6.27c8-7.29,18-12.05,25.57-19.74,14.5-14.73,17.19-37,25-56.16,7.64-18.84,93.95-49.76,97.47-34.42C245.38,249,245.31,266.55,237.68,282.51Z" transform="translate(-6.5 -6.5)"/><path class="cls-4" d="M345.92,255.47c-.41,10.17,3.76,20.15,10,28.21s14.4,14.38,22.88,20a218.47,218.47,0,0,0,38.87,20.55c7,2.85,14.35,5.36,21.91,5.29,6.21-.05,12.38-1.85,18.55-1.2a7.48,7.48,0,0,1,3.35,1c2.36,1.56,2.65,4.94,2.16,7.73-2.14,12.29-15.76,21.25-27.89,18.37-5.3-1.27-10-4.35-14.82-6.79-7.25-3.61-15.11-5.82-22.81-8.35a277.11,277.11,0,0,1-64.81-31.12c-9.94-6.48-19.59-13.72-26.93-23-5.35-6.79-9.52-15.3-8.17-23.84s10.13-16.12,18.4-13.6Z" transform="translate(-6.5 -6.5)"/><path class="cls-4" d="M144,219.76c-5.77-6.3-17-6.36-22.83-.1s-5,17.45,1.71,22.76c-6.67,2-9.24,10.71-7.23,17.38,2.56,8.44,10.78,14.62,19.54,15.48,18.08,1.77,30-15.39,32.68-31.46C169.53,233.82,155.86,207.65,144,219.76Z" transform="translate(-6.5 -6.5)"/><path class="cls-4" d="M126.86,224.18a7.88,7.88,0,0,1,10.68,2.93,1,1,0,0,1-.47,1.35,1,1,0,0,1-1.35-.46,5.86,5.86,0,0,0-8-2,1,1,0,1,1-.88-1.81Z" transform="translate(-6.5 -6.5)"/><path class="cls-4" d="M140.59,223.25a9,9,0,0,1,4.71,8.2,1,1,0,0,1-1.09.92,1,1,0,0,1-.92-1.09,6.88,6.88,0,0,0-1-3.72,7.06,7.06,0,0,0-2.84-2.65,1,1,0,0,1-.26-1.4,1,1,0,0,1,1.4-.26Z" transform="translate(-6.5 -6.5)"/><path class="cls-4" d="M151.11,222.14a13.14,13.14,0,0,1,5.53,4.86c1.27,2,2,4.58.71,6.74-.67,1.11-2.33,0-1.66-1.14.91-1.51-.06-3.53-.93-4.82a10.81,10.81,0,0,0-4.33-3.74,1,1,0,0,1-.61-1.29,1,1,0,0,1,1.29-.61Z" transform="translate(-6.5 -6.5)"/><path class="cls-4" d="M123.8,248.37a7.4,7.4,0,0,1,5.63-4.39,10.12,10.12,0,0,1,7.55,2.07,1,1,0,0,1-.12,1.74l-.58.26c-1.18.54-2.07-1.27-.89-1.81L136,246l-.12,1.74a8.2,8.2,0,0,0-5.88-1.78,5.36,5.36,0,0,0-4.27,3.1c-.48,1.2-2.39.53-1.9-.67Z" transform="translate(-6.5 -6.5)"/><path class="cls-4" d="M125.62,237.39a11,11,0,0,1,10,.79c1.1.69,0,2.35-1.14,1.67a8.8,8.8,0,0,0-8-.65,1,1,0,0,1-1.35-.46,1,1,0,0,1,.46-1.35Z" transform="translate(-6.5 -6.5)"/><path class="cls-4" d="M141.91,237a5.76,5.76,0,0,1,3.14,6.85,1,1,0,0,1-1.9-.68c0-.06,0-.13,0-.19s0-.15,0,0l.06-.39c0-.12,0-.24,0-.36s0-.13,0-.2c0,.14,0,.12,0,0a4.57,4.57,0,0,0-.12-.74l-.06-.19c0-.13.07.17,0,0s-.09-.25-.15-.37-.1-.21-.16-.32a1,1,0,0,0-.1-.17s-.13-.22-.05-.09l-.06-.09a1.83,1.83,0,0,0-.13-.16l-.23-.27-.14-.14h0l-.31-.25a2.2,2.2,0,0,0-.3-.19l-.17-.1c.15.08,0,0,0,0a1,1,0,1,1,.67-1.9Z" transform="translate(-6.5 -6.5)"/><path class="cls-4" d="M401.56,126.7c-15.18-7.06-25.16-22.32-40-30-17.8-9.27-39.17-6.23-59.13-8.25-6-.62-12-1.71-18-2.5-1.8-.23-4.33.15-4.36,2a3.29,3.29,0,0,0,.85,1.9c11.48,15.51,24.58,31.54,43,37.15,12.61,3.83,26.61,2.35,38.64,7.74,5.5,2.46,10.62,6.36,16.63,6.72a23.29,23.29,0,0,0,8.75-1.51,53.16,53.16,0,0,0,13.14-6.62Z" transform="translate(-6.5 -6.5)"/><path class="cls-4" d="M305.69,218.08c-49,9.27-56.45-.84-80.91,1.73s-55.24,8.66-73.76,24.84S137.1,288,147.7,310.23c9.21,19.28,33.22,19.57,53.79,25.36,39.9,11.23,76.11,17.79,115.32,4.35s78.43-37.42,98.07-73.91c9.91-18.44,15.93-40.69,8.54-60.27-7.89-20.91-28.55-28.71-48.62-23.39-11,2.91-16.39,9.37-26.85,15.68C335.53,205.55,319.88,215.39,305.69,218.08Z" transform="translate(-6.5 -6.5)"/><path class="cls-4" d="M147.43,310a44.23,44.23,0,0,1-3.89-13.11c11.23,12.13,31.27,13.07,48.82,18,39.89,11.23,76.1,17.79,115.31,4.35s78.43-37.42,98.07-73.92c8.39-15.58,14-33.91,11-51a40.41,40.41,0,0,1,6.37,11.23c7.39,19.58,1.38,41.83-8.54,60.27-19.64,36.49-58.86,60.48-98.07,73.91s-75.42,6.88-115.32-4.35C180.66,329.59,156.64,329.3,147.43,310Z" transform="translate(-6.5 -6.5)"/><path class="cls-4" d="M427.41,256.56c-.4-.91-.79-1.83-1.18-2.74a52.57,52.57,0,0,1-19.52,35.9q-1.81-4.89-3.61-9.78c.1,3.44-4.49,5.38-7.68,4.09s-5.13-4.49-6.84-7.47c-4.36-7.58-8.8-15.43-9.75-24.12q-1.62,5.55-3.23,11.1c-4.79-11.92-2.29-25.37.27-38a38.2,38.2,0,0,0-7.24,10.54c.56-5.92,1.41-11.89,3.7-17.37s6.2-10.49,11.57-13c5.89-2.81,12.8-2.39,19.23-1.24,10.78,1.92,19.23-4.52,25,5.85,5.15,9.19,7.11,19.54,4.85,27.3-.95,3.27-1,6.71-2,10C430.62,249,427,255.64,427.41,256.56Z" transform="translate(-6.5 -6.5)"/><path class="cls-4" d="M478.6,138.72c-21.39-1.41-33.31-21.62-55.44-23.57-9.12-.81-24.7,2.8-33.32,5.87-6.24,2.22-12.48,4.77-17.72,8.82-8.65,6.71-13.9,17.14-15.93,27.9-2.7,14.26.4,30.13,10.06,40.79,3.85,8.26,12.65,9.29,21.44,12.05,9.83,3.1,20.28,5.24,30.42,3.38,12.93-2.38,42.78-9.71,50.6-18,11.11-11.76,15.17-28.71,16.67-44.82C486.06,143.87,482.51,139,478.6,138.72Z" transform="translate(-6.5 -6.5)"/><path class="cls-4" d="M421.47,133c-3.32-1-7.91-.64-12.16.85-2.17.76-6,2.12-7.73,4.57a2.08,2.08,0,0,0,2.06,3.32c.17-.21,7.73-1,7.73-1a53.65,53.65,0,0,0,12,.82c.51,0,0,.17.51,0,1.31-.47,2.83-1.81,2.85-2.64C426.77,136.21,424.79,134,421.47,133Z" transform="translate(-6.5 -6.5)"/><path class="cls-4" d="M401.73,141.35s11.85-6.22,17.41-5.93c6.81.34,6.18,5.1,6.18,5.1s-2.44,4.38-11.54,5.91C407.58,147.48,401.73,141.35,401.73,141.35Z" transform="translate(-6.5 -6.5)"/><path class="cls-4" d="M416.9,139.57c.44.28,1,.48,1.43.77.61.43,1.13,1.09,2.23.9a2.58,2.58,0,0,0,1.62-1,1.4,1.4,0,0,0,.17-1.28,3.55,3.55,0,0,0-3.53-1.91C416.52,137.13,415.63,138.76,416.9,139.57Z" transform="translate(-6.5 -6.5)"/><path class="cls-4" d="M463.61,155.2a13.16,13.16,0,0,0,1.14,5.23,15.08,15.08,0,0,0,5.79,7.41c2.73,1.66,6.42,2,9.06.17,2.21-1.5,3.35-4.14,4.08-6.7,1-3.56,1.47-7.46.08-10.89-1.64-4.08-7.39-7.66-11.83-6.23C467.69,145.56,463.69,150.78,463.61,155.2Z" transform="translate(-6.5 -6.5)"/><path class="cls-4" d="M478.61,138.73c-.63,0-1.24-.1-1.85-.17a10.61,10.61,0,0,0-4.67,4.32c-.83,1.42-1.2,3.39-.08,4.61a4.76,4.76,0,0,0,1.41,1l9.74,5.09a4.32,4.32,0,0,0,1.19.46,1.94,1.94,0,0,0,.76,0c.1-.92.19-1.86.28-2.81C486.07,143.88,482.51,139,478.61,138.73Z" transform="translate(-6.5 -6.5)"/><path class="cls-4" d="M425.92,224.9l1.56,8.35a1.08,1.08,0,0,1-2.12.41q-.8-4.18-1.57-8.35a1.09,1.09,0,0,1,2.13-.41Z" transform="translate(-6.5 -6.5)"/><path class="cls-4" d="M420,235.25q-.19,5.81-.41,11.62c0,1.4-2.2,1.22-2.15-.17q.19-5.82.4-11.63c0-1.39,2.21-1.21,2.16.18Z" transform="translate(-6.5 -6.5)"/><path class="cls-4" d="M398.45,259.73a33.18,33.18,0,0,1-4.2-14.1,1.13,1.13,0,0,1,.87-1.27,1.1,1.1,0,0,1,1.26.87,31.84,31.84,0,0,0,4,13.55c.69,1.22-1.26,2.16-1.94,1Z" transform="translate(-6.5 -6.5)"/><path class="cls-4" d="M383.91,234.63l-1.62-8.92a1.08,1.08,0,0,1,2.13-.4l1.62,8.92a1.08,1.08,0,0,1-2.13.4Z" transform="translate(-6.5 -6.5)"/><path class="cls-4" d="M383.74,216q-.48.22-.93.48l-.27.16-.14.09a1.07,1.07,0,0,1-.15.1L382,217a10.76,10.76,0,0,0-1.58,1.44l-.06.07c-.06.06-.11.13-.17.2s-.21.27-.32.41a10,10,0,0,0-.57.87l-.26.46c-.16.3.08-.18-.06.13a2.4,2.4,0,0,0-.11.23c-.15.34-.28.68-.4,1a1.1,1.1,0,0,1-1.38.66,1.11,1.11,0,0,1-.66-1.39,12,12,0,0,1,6.32-7,1.08,1.08,0,1,1,.95,1.94Z" transform="translate(-6.5 -6.5)"/><path class="cls-4" d="M399.2,226.53a22,22,0,0,0-1.19,7.72,1.09,1.09,0,0,1-1.17,1,1.11,1.11,0,0,1-1-1.17,24,24,0,0,1,1.31-8.27,1.11,1.11,0,0,1,1.39-.66,1.1,1.1,0,0,1,.65,1.39Z" transform="translate(-6.5 -6.5)"/><path class="cls-4" d="M386.67,141.91c-7-.69-13.5-3.45-20.11-5.7-15.5-5.28-32.45-7.85-48.44-3.78-8.18,2.08-52,13.31-64.45,34.78,2.91,5.71,23.73,6.95,36.13,8.16,11.09,1.09,22-3.69,31.66-9.38s14.45-5.75,25-9.41,23.36-3.75,31.8,3.44Z" transform="translate(-6.5 -6.5)"/><path class="cls-4" d="M321.08,133.46A185.2,185.2,0,0,0,302,139.53l-33.53,12c-1.13.4-2.42.95-2.83,2a2.56,2.56,0,0,0,1,2.69c4.45,4.21,12.29,3.29,19,1.56,13.15-3.39,25.79-8.87,38.53-13.79,6.31-2.43,12.66-4.76,19.11-6.62,3.61-1,10.07-1.47,12.58-4.69-3.53-2.41-11.86-1.76-16.45-1.65A87,87,0,0,0,321.08,133.46Z" transform="translate(-6.5 -6.5)"/><path class="cls-4" d="M351.19,135.53c-3.35-.2-7,0-9.48.07A87,87,0,0,0,323.4,138a182.62,182.62,0,0,0-19.07,6.07l-33.54,12a5.61,5.61,0,0,0-2.48,1.46,9.46,9.46,0,0,1-1.69-1.27,2.56,2.56,0,0,1-1-2.69c.41-1.07,1.7-1.62,2.83-2l33.53-12a186,186,0,0,1,19.08-6.07,87,87,0,0,1,18.31-2.38c4.59-.11,12.92-.76,16.45,1.65A9.51,9.51,0,0,1,351.19,135.53Z" transform="translate(-6.5 -6.5)"/><path class="cls-4" d="M461.51,155.35a58.74,58.74,0,0,0-21.66,7.2,56.44,56.44,0,0,0-5.4,3.48,1.12,1.12,0,0,1-1.53-.1,1.09,1.09,0,0,1,.11-1.53,60.87,60.87,0,0,1,21.48-10,59.17,59.17,0,0,1,6.59-1.21c1.38-.18,1.79,1.95.41,2.13Z" transform="translate(-6.5 -6.5)"/><path class="cls-4" d="M462.23,161.46a67.58,67.58,0,0,0-16,10c-1.07.9-2.49-.74-1.42-1.64a69.66,69.66,0,0,1,16.42-10.35c1.27-.57,2.22,1.37,1,1.94Z" transform="translate(-6.5 -6.5)"/><path class="cls-4" d="M466,167.23a39.34,39.34,0,0,0-12.79,12.13,1.08,1.08,0,0,1-1.78-1.22A41.67,41.67,0,0,1,465,165.28a1.08,1.08,0,1,1,.95,1.95Z" transform="translate(-6.5 -6.5)"/><path class="cls-4" d="M220.91,310.52C206.79,321.93,189,327.91,171.2,331.4a214.48,214.48,0,0,1-51.64,3.74c-10.73-.53-21.77-1.83-32,1.44C73.67,341,63.74,353,55,364.71c-3.3,4.44-6.7,9.45-6.26,15,.36,4.52,3,9.95-.4,12.95-2.42,2.14-6.36,1.08-8.84-1-4.35-3.65-6.1-9.68-5.88-15.35s2.14-11.12,4-16.46l16.63-46.68c.9-2.54,1.86-5.17,3.75-7.1A16,16,0,0,1,65,302.37c10.31-3.14,21.44-3.11,31.57-6.78,19.44-7,31.46-26,46.72-39.93,15-13.71,34.16-23,54.34-25.54,8.57-1.07,17.46-.91,25.63,1.9,14.1,4.86,26.25,19.23,22.83,34.59C242.28,283.64,234.67,299.41,220.91,310.52Z" transform="translate(-6.5 -6.5)"/><path class="cls-4" d="M376.69,245.78c3.87,9.42,11.82,16.75,20.84,21.48s19.08,7.07,29.14,8.67a218.65,218.65,0,0,0,43.9,2.48c7.55-.34,15.27-1.11,22.12-4.33,5.62-2.64,10.48-6.85,16.36-8.83a7.48,7.48,0,0,1,3.46-.48c2.8.43,4.47,3.38,5.19,6.12,3.17,12.06-5.46,25.89-17.69,28.32-5.35,1.06-32.47,1-40.52,1.93a277.21,277.21,0,0,1-71.88-1.26c-11.74-1.75-23.52-4.31-34.09-9.72-7.69-3.94-15-9.94-17.36-18.26s2.48-18.88,11-20Z" transform="translate(-6.5 -6.5)"/></g></svg>