<?xml version="1.0" standalone="no"?>
<!DOCTYPE svg PUBLIC "-//W3C//DTD SVG 20010904//EN"
 "http://www.w3.org/TR/2001/REC-SVG-20010904/DTD/svg10.dtd">
<svg version="1.0" xmlns="http://www.w3.org/2000/svg"
 width="4772.000000pt" height="4773.000000pt" viewBox="0 0 4772.000000 4773.000000"
 preserveAspectRatio="xMidYMid meet">
<metadata>
Created by potrace 1.16, written by Peter Selinger 2001-2019
</metadata>
<g transform="translate(0.000000,4773.000000) scale(0.100000,-0.100000)"
fill="#000000" stroke="none">
<path d="M23510 47723 c-4105 -51 -8192 -1192 -11720 -3271 -107 -63 -207
-122 -222 -131 -303 -178 -952 -598 -1323 -858 -232 -162 -598 -426 -675 -486
-8 -7 -62 -48 -120 -91 -172 -130 -665 -520 -750 -592 -14 -12 -86 -73 -160
-134 -196 -163 -232 -194 -244 -206 -6 -6 -92 -81 -191 -168 -99 -87 -202
-179 -230 -204 -145 -133 -176 -162 -245 -227 -273 -254 -384 -362 -644 -622
-310 -310 -516 -525 -751 -783 -38 -41 -76 -82 -84 -91 -9 -9 -43 -47 -76 -85
-33 -37 -94 -106 -136 -153 -133 -151 -468 -545 -539 -635 -8 -10 -27 -33 -41
-50 -45 -53 -272 -339 -309 -388 -55 -73 -233 -302 -244 -315 -6 -6 -33 -43
-61 -82 -27 -39 -53 -71 -57 -71 -4 0 -8 -4 -8 -9 0 -6 -29 -50 -66 -98 -77
-104 -71 -96 -177 -243 -45 -64 -102 -145 -127 -180 -24 -36 -48 -69 -52 -75
-17 -21 -155 -222 -183 -267 -17 -27 -33 -48 -37 -48 -5 0 -8 -5 -8 -10 0 -13
-100 -164 -112 -168 -4 -2 -8 -8 -8 -13 0 -5 -17 -35 -39 -67 -21 -31 -67
-102 -102 -157 -35 -55 -67 -101 -71 -103 -5 -2 -8 -8 -8 -13 0 -5 -33 -60
-73 -124 -39 -63 -77 -123 -82 -133 -10 -16 -79 -130 -120 -196 -11 -18 -33
-54 -50 -82 -16 -27 -34 -52 -40 -56 -5 -4 -7 -8 -3 -8 4 0 -11 -28 -33 -62
-21 -35 -48 -81 -60 -103 -12 -22 -26 -43 -31 -46 -5 -3 -10 -10 -10 -15 1 -5
-18 -42 -41 -83 -23 -41 -57 -101 -75 -135 -18 -34 -41 -72 -50 -86 -9 -14
-29 -50 -45 -80 -17 -30 -73 -134 -125 -230 -52 -96 -145 -272 -205 -390 -61
-118 -114 -218 -120 -221 -5 -3 -8 -10 -8 -15 1 -18 -11 -44 -20 -44 -6 0 -8
-4 -4 -9 3 -5 -2 -17 -11 -25 -8 -9 -13 -16 -10 -16 4 0 -20 -53 -53 -117 -32
-65 -93 -192 -136 -283 -42 -91 -96 -205 -119 -255 -58 -122 -119 -257 -151
-335 -15 -36 -35 -79 -46 -96 -10 -17 -16 -34 -12 -37 3 -4 1 -7 -5 -7 -7 0
-11 -3 -10 -7 4 -12 -44 -127 -56 -135 -6 -4 -8 -8 -3 -8 4 0 -2 -18 -13 -40
-11 -21 -20 -44 -20 -49 0 -6 -11 -34 -24 -63 -28 -63 -68 -160 -86 -208 -7
-19 -17 -39 -22 -44 -4 -6 -8 -16 -8 -23 0 -8 -9 -33 -20 -55 -11 -23 -20 -45
-20 -49 0 -3 -10 -28 -22 -55 -12 -27 -23 -53 -24 -59 -1 -5 -8 -23 -15 -40
-7 -16 -13 -32 -13 -35 -4 -21 -52 -139 -64 -157 -8 -13 -12 -23 -8 -23 5 0
-21 -74 -44 -125 -5 -11 -45 -123 -90 -250 -94 -269 -89 -254 -90 -260 0 -3
-14 -42 -31 -87 -37 -101 -61 -172 -130 -393 -30 -93 -57 -172 -61 -173 -5 -2
-6 -7 -3 -12 2 -4 -8 -47 -24 -96 -16 -49 -58 -190 -94 -314 -36 -124 -73
-252 -83 -285 -20 -69 -18 -60 -28 -105 -5 -19 -13 -41 -18 -47 -6 -7 -8 -13
-5 -13 3 0 -11 -60 -30 -132 -19 -73 -44 -169 -54 -213 -11 -44 -22 -87 -26
-95 -3 -8 -7 -19 -8 -25 -1 -5 -3 -12 -4 -15 -1 -3 -4 -17 -6 -31 -2 -15 -12
-62 -24 -105 -17 -70 -33 -135 -33 -141 0 -2 -6 -26 -14 -55 -8 -29 -17 -66
-19 -82 -2 -16 -9 -43 -14 -60 -6 -17 -12 -42 -15 -56 -9 -54 -48 -236 -53
-250 -3 -8 -7 -26 -9 -40 -2 -14 -19 -101 -39 -195 -19 -93 -37 -181 -39 -195
-3 -14 -14 -77 -27 -140 -12 -63 -22 -121 -22 -127 0 -7 -4 -13 -8 -13 -5 0
-6 -7 -3 -15 4 -8 3 -23 -1 -32 -4 -10 -8 -29 -10 -43 -3 -34 -11 -80 -40
-245 -14 -77 -27 -158 -30 -180 -7 -51 -12 -80 -14 -80 -2 0 -4 -13 -6 -30 -6
-62 -45 -342 -61 -440 -8 -45 -11 -74 -18 -140 -7 -65 -24 -203 -32 -248 -2
-15 -6 -49 -9 -75 -10 -113 -16 -172 -25 -248 -6 -44 -12 -107 -15 -140 -3
-32 -7 -81 -10 -109 -2 -27 -7 -77 -10 -110 -3 -33 -8 -85 -12 -115 -4 -30 -6
-58 -5 -62 1 -4 -5 -94 -13 -200 -22 -290 -24 -322 -31 -463 -3 -71 -7 -150
-9 -175 -12 -155 -20 -634 -20 -1205 1 -647 5 -823 25 -1175 5 -96 12 -224 15
-285 3 -60 7 -123 10 -140 5 -30 15 -183 20 -307 2 -37 5 -70 8 -75 3 -4 8
-54 11 -111 3 -57 7 -106 10 -110 2 -4 7 -50 11 -102 3 -52 17 -187 30 -300
14 -113 27 -232 31 -265 10 -105 12 -119 17 -145 4 -14 8 -45 11 -70 3 -25 9
-76 14 -115 6 -38 10 -77 11 -85 2 -21 10 -76 30 -203 7 -37 9 -72 6 -77 -3
-5 -1 -11 3 -14 9 -5 12 -24 15 -96 1 -19 5 -37 8 -40 5 -5 58 -309 64 -370 1
-14 5 -32 9 -40 3 -8 8 -37 10 -65 3 -27 6 -50 7 -50 2 0 7 -28 14 -75 2 -14
4 -25 5 -25 2 0 4 -9 5 -20 2 -11 21 -108 43 -215 22 -107 42 -211 45 -230 6
-34 108 -491 142 -635 9 -38 18 -79 20 -90 1 -11 5 -27 8 -35 12 -30 130 -506
131 -527 1 -13 4 -23 7 -23 5 0 30 -92 35 -125 0 -5 4 -17 7 -25 10 -24 40
-134 42 -150 0 -9 4 -20 7 -26 4 -6 9 -21 12 -35 3 -13 9 -39 15 -56 5 -18 7
-33 4 -33 -3 0 0 -7 7 -15 6 -8 9 -19 5 -25 -3 -5 -2 -10 3 -10 5 0 9 -6 10
-12 1 -7 8 -38 17 -68 9 -30 18 -59 19 -65 2 -5 6 -17 9 -25 3 -8 9 -28 13
-45 9 -37 8 -34 22 -68 7 -16 12 -33 12 -38 0 -5 9 -35 20 -66 11 -31 18 -59
15 -61 -3 -3 -1 -10 4 -16 9 -12 43 -113 46 -136 0 -8 7 -25 13 -37 7 -12 11
-26 11 -30 -1 -4 1 -15 5 -23 15 -36 168 -497 169 -512 1 -10 4 -18 8 -18 4 0
11 -15 15 -33 10 -42 9 -37 26 -77 19 -43 109 -295 112 -312 1 -7 8 -23 14
-36 7 -12 10 -27 7 -32 -3 -6 -1 -10 5 -10 6 0 8 -4 5 -10 -3 -5 -1 -10 4 -10
6 0 10 -3 9 -7 -1 -5 5 -24 13 -43 9 -19 24 -57 33 -85 10 -27 22 -59 27 -70
31 -69 78 -199 74 -206 -3 -4 0 -9 5 -11 6 -2 12 -10 14 -18 2 -8 12 -35 23
-60 10 -25 32 -76 47 -115 15 -38 32 -78 37 -88 5 -10 7 -22 4 -27 -4 -6 -2
-10 3 -10 9 0 69 -140 64 -152 -1 -5 2 -8 7 -8 9 0 58 -121 52 -129 -1 -2 2
-7 9 -11 6 -4 13 -13 14 -21 2 -8 18 -45 35 -84 18 -38 34 -74 35 -80 2 -5 12
-30 24 -55 11 -24 18 -48 16 -52 -3 -4 -1 -8 4 -8 5 0 15 -15 23 -32 7 -18 34
-79 61 -136 26 -57 48 -105 48 -108 0 -2 27 -58 60 -125 33 -67 57 -126 54
-130 -3 -5 -1 -9 5 -9 9 0 27 -40 22 -49 -2 -2 2 -7 7 -10 13 -9 74 -131 65
-131 -5 0 -3 -4 3 -8 13 -9 116 -212 108 -212 -4 0 -1 -6 5 -13 13 -17 36 -59
176 -332 59 -115 111 -214 115 -220 4 -5 28 -50 55 -100 26 -49 56 -105 67
-122 11 -18 16 -33 11 -33 -4 0 -3 -4 3 -8 12 -7 154 -258 154 -272 0 -4 9
-17 20 -30 11 -12 17 -26 15 -30 -3 -4 2 -10 10 -14 8 -3 15 -10 15 -15 0 -6
15 -34 33 -63 18 -29 38 -64 45 -78 7 -14 30 -53 52 -87 22 -35 36 -63 32 -63
-4 0 -2 -4 4 -8 12 -7 35 -44 74 -114 11 -20 33 -57 50 -81 16 -25 30 -47 30
-50 0 -4 13 -26 30 -50 16 -25 30 -50 30 -56 0 -6 4 -11 9 -11 5 0 16 -15 25
-33 9 -17 36 -62 59 -98 96 -149 157 -244 274 -422 68 -103 123 -192 123 -197
0 -4 4 -10 8 -12 4 -1 46 -58 92 -126 47 -67 120 -172 162 -232 43 -61 75
-110 70 -110 -4 0 -2 -4 3 -8 15 -10 78 -92 71 -92 -3 0 1 -8 9 -17 81 -100
105 -132 105 -142 0 -6 3 -11 8 -11 4 0 18 -17 31 -38 14 -20 36 -49 50 -64
14 -16 21 -28 15 -28 -5 0 -3 -4 4 -8 6 -5 41 -48 76 -98 36 -49 75 -99 88
-111 12 -13 20 -23 16 -23 -4 0 3 -11 15 -24 12 -13 27 -30 32 -38 48 -63 208
-266 287 -365 54 -67 98 -126 98 -132 0 -5 4 -11 8 -13 10 -4 322 -376 322
-384 0 -3 8 -13 19 -22 24 -22 283 -322 277 -322 -2 0 15 -19 38 -43 22 -23
92 -99 153 -168 62 -69 125 -139 140 -155 16 -17 64 -70 108 -118 139 -153
820 -855 873 -900 51 -43 100 -95 94 -101 -4 -4 -2 -5 4 -3 6 2 37 -22 69 -52
32 -30 95 -89 139 -131 144 -136 208 -195 376 -345 91 -81 199 -177 240 -214
41 -37 109 -96 150 -130 41 -34 84 -72 95 -84 11 -11 46 -40 78 -64 31 -23 57
-46 57 -51 0 -4 9 -12 19 -17 17 -8 78 -58 140 -114 9 -8 39 -33 66 -55 28
-21 59 -47 70 -57 11 -9 75 -60 143 -113 67 -53 122 -101 122 -106 0 -6 4 -8
9 -4 6 3 13 0 18 -7 4 -7 28 -26 52 -43 24 -16 45 -35 48 -42 3 -7 10 -13 17
-13 6 0 27 -14 46 -30 36 -30 180 -141 255 -195 22 -16 77 -57 120 -89 44 -33
114 -84 155 -115 41 -30 80 -59 85 -63 6 -4 53 -38 105 -75 52 -36 102 -72
110 -80 8 -7 47 -34 85 -60 183 -122 291 -197 303 -211 6 -9 12 -12 12 -8 0 5
15 -3 33 -16 56 -43 129 -92 210 -143 43 -26 84 -54 91 -60 7 -7 27 -20 44
-29 18 -9 72 -43 120 -75 48 -32 130 -84 182 -117 52 -32 97 -62 98 -66 2 -4
8 -8 13 -8 4 0 93 -51 196 -114 104 -62 243 -146 310 -185 68 -40 130 -79 138
-87 8 -9 15 -12 15 -9 0 4 17 -3 38 -15 20 -13 57 -34 82 -48 25 -14 51 -31
58 -39 7 -7 18 -13 24 -13 12 0 250 -130 258 -141 3 -3 25 -16 50 -28 25 -12
77 -39 115 -59 39 -21 125 -66 193 -101 67 -35 122 -68 122 -74 0 -6 3 -8 6
-4 5 5 583 -278 594 -292 3 -3 12 -7 20 -9 8 -2 65 -27 125 -57 61 -29 120
-56 133 -60 12 -4 19 -11 16 -17 -4 -7 -2 -8 4 -4 7 4 29 -2 50 -13 20 -11 80
-39 132 -62 52 -22 118 -51 145 -64 28 -13 84 -38 125 -55 41 -18 77 -35 80
-39 3 -3 14 -7 25 -9 11 -2 36 -13 55 -24 19 -11 85 -40 147 -64 62 -23 124
-51 139 -61 16 -10 31 -17 34 -16 10 4 50 -9 50 -16 0 -4 6 -8 13 -8 12 0 310
-118 332 -131 6 -4 17 -7 25 -9 18 -2 143 -55 150 -62 3 -3 12 -8 20 -10 8 -2
20 -4 25 -6 6 -1 23 -7 38 -13 16 -7 31 -12 34 -12 2 0 66 -23 141 -51 76 -29
182 -67 237 -87 55 -19 102 -37 105 -41 3 -3 16 -7 30 -9 13 -1 27 -6 30 -10
3 -4 13 -8 24 -10 10 -2 30 -8 45 -14 14 -6 35 -13 45 -15 11 -2 25 -8 31 -13
7 -5 15 -7 18 -3 4 3 7 1 7 -6 0 -7 4 -10 9 -7 7 5 210 -58 261 -81 8 -3 18
-7 23 -8 4 -2 8 -3 10 -5 1 -1 10 -3 19 -5 24 -4 151 -46 163 -54 6 -3 12 -6
15 -6 21 -3 77 -19 90 -25 14 -7 123 -41 146 -46 6 -1 48 -13 95 -28 46 -14
96 -28 112 -32 15 -3 30 -10 33 -15 3 -5 15 -9 27 -9 12 0 85 -19 162 -41 77
-23 152 -44 168 -46 15 -3 30 -9 33 -14 3 -5 16 -9 29 -9 13 0 36 -5 52 -12
15 -6 35 -12 43 -13 34 -4 236 -59 245 -67 5 -4 19 -8 32 -8 22 0 333 -75 363
-87 8 -3 18 -6 22 -5 4 1 20 -3 35 -9 15 -5 46 -13 68 -16 22 -3 45 -8 50 -12
6 -4 19 -8 30 -9 23 -1 292 -60 315 -69 8 -3 31 -7 52 -9 20 -2 49 -9 65 -15
15 -6 44 -13 63 -15 19 -2 46 -6 60 -10 14 -4 30 -8 35 -9 95 -14 115 -19 115
-24 0 -3 18 -7 40 -8 22 0 48 -4 58 -8 9 -4 35 -9 57 -11 21 -3 41 -8 45 -12
3 -4 16 -8 30 -9 14 -1 39 -4 55 -7 17 -3 52 -8 80 -12 27 -3 54 -9 61 -15 6
-5 13 -7 15 -4 3 2 41 -3 84 -11 44 -8 95 -17 114 -19 19 -3 86 -14 150 -25
64 -11 138 -23 166 -26 27 -3 54 -9 61 -15 6 -5 14 -6 17 -3 3 4 37 1 74 -6
37 -6 86 -14 108 -16 22 -2 51 -7 64 -10 13 -3 46 -7 75 -10 28 -4 74 -10 101
-15 28 -5 82 -12 120 -15 39 -3 75 -9 80 -14 6 -4 19 -6 29 -4 11 1 88 -6 170
-16 313 -39 356 -44 496 -54 41 -3 91 -9 110 -12 19 -4 55 -8 80 -9 99 -4 396
-27 409 -31 8 -3 53 -7 100 -9 47 -3 93 -5 101 -6 154 -9 602 -30 750 -36 220
-9 1448 -8 1640 1 69 3 181 8 250 11 285 13 532 28 732 45 70 6 130 10 135 9
4 -2 28 1 53 4 40 6 107 12 250 22 25 2 61 6 80 9 19 3 69 8 110 12 79 6 117
10 190 18 25 3 70 8 100 11 30 3 82 10 115 15 33 5 69 8 80 6 11 -2 27 1 35 5
12 6 154 26 325 44 17 2 57 8 90 14 33 5 78 12 100 15 22 3 141 21 265 41 123
19 230 33 237 31 7 -3 13 -1 13 5 0 6 10 9 23 8 12 -2 27 0 33 4 6 3 31 9 55
12 24 3 64 9 89 14 25 5 66 12 90 15 25 2 45 5 45 7 0 1 9 3 20 5 11 2 53 10
93 18 41 9 77 15 80 14 4 -1 14 1 22 5 37 14 280 58 290 52 5 -3 10 -2 10 3 0
8 121 36 160 37 8 1 20 3 25 7 9 5 46 13 110 24 11 2 56 12 100 23 44 11 94
22 110 25 17 3 44 8 60 12 17 3 37 8 45 9 8 1 22 5 31 9 9 4 28 8 43 10 14 1
29 6 33 9 3 4 15 7 26 7 10 0 49 9 85 20 37 10 81 21 97 24 34 5 44 8 138 35
37 11 80 22 95 25 15 3 77 19 137 35 61 17 116 29 123 26 7 -3 10 0 7 5 -3 6
0 10 8 10 8 0 126 32 263 71 137 39 254 72 259 73 9 2 90 26 190 57 17 4 57
18 90 28 58 20 249 80 270 85 6 2 17 6 25 9 36 14 383 129 393 131 7 1 17 4
22 7 13 8 149 53 153 50 1 -1 16 6 32 14 17 9 30 13 30 11 0 -3 12 1 27 9 15
8 30 12 35 9 4 -3 8 -1 8 4 0 9 91 39 99 33 2 -1 7 1 10 6 9 13 232 93 242 87
5 -3 9 -1 9 4 0 9 93 47 130 54 8 2 17 6 20 9 8 9 90 39 90 33 0 -4 6 -2 13 4
6 5 64 30 127 55 63 25 203 82 310 127 107 45 200 83 205 84 6 2 33 13 60 25
28 12 59 26 70 31 11 4 45 19 75 33 102 48 150 66 150 59 0 -4 4 -2 8 4 10 15
162 85 172 79 5 -3 10 -1 12 4 5 14 199 101 211 94 6 -3 7 -1 3 5 -4 7 -1 12
8 12 8 0 44 16 79 35 35 19 67 32 70 28 4 -3 7 -1 7 5 0 7 5 12 11 12 12 0
696 339 779 386 30 17 107 58 170 92 63 33 149 79 190 101 41 23 91 49 110 59
19 9 37 20 40 23 3 4 26 17 52 30 25 13 120 66 209 118 90 52 169 94 176 94 7
0 10 3 8 7 -4 7 116 76 128 72 4 -1 7 2 7 8 0 5 6 10 14 10 8 0 16 4 18 8 4
11 173 112 186 112 6 0 12 3 14 8 5 11 88 63 88 55 0 -5 4 -3 8 3 6 9 250 166
287 184 12 6 157 101 422 276 110 74 206 134 212 134 6 0 11 4 11 8 0 5 62 50
138 101 75 50 144 97 152 104 46 39 105 75 113 70 6 -3 7 -2 4 4 -4 6 5 15 19
22 25 11 99 65 119 87 5 6 40 32 78 58 37 26 67 50 67 53 0 3 -6 0 -14 -6 -43
-36 -682 -334 -1101 -514 -2325 -996 -4792 -1584 -7315 -1741 -876 -55 -1889
-55 -2770 -1 -5156 320 -9971 2391 -13750 5915 -391 364 -975 959 -1336 1360
-1518 1687 -2758 3572 -3696 5614 -1136 2477 -1803 5143 -1968 7866 -28 467
-35 722 -34 1340 0 864 24 1394 100 2145 299 2991 1290 5909 2922 8609 1522
2517 3592 4799 6036 6651 3055 2315 6582 3876 10120 4480 840 143 1631 227
2501 266 504 22 1344 12 1870 -21 2585 -167 3996 -659 4491 -1567 214 -391
259 -908 132 -1518 -42 -205 -43 -197 12 -208 857 -165 1373 -408 1598 -751
201 -308 173 -695 -90 -1220 -219 -437 -551 -908 -1353 -1916 -584 -734 -898
-1145 -1206 -1575 -1019 -1425 -1579 -2635 -1758 -3800 -45 -289 -55 -436 -56
-798 0 -191 -3 -333 -7 -314 -10 50 -45 380 -60 567 -17 218 -17 1009 0 1230
112 1441 460 2745 1211 4542 50 119 327 749 617 1400 652 1465 820 1877 969
2384 67 226 72 249 51 257 -21 8 -307 52 -496 76 -997 127 -2099 154 -3135 76
-1906 -144 -3897 -647 -5830 -1473 -487 -208 -1194 -548 -1650 -792 -2437
-1309 -4623 -3081 -6376 -5170 -783 -933 -1501 -1964 -2076 -2980 -585 -1034
-1060 -2091 -1423 -3167 -477 -1410 -761 -2824 -864 -4288 -33 -464 -41 -723
-41 -1340 1 -637 8 -857 46 -1385 251 -3519 1469 -6893 3533 -9785 1532 -2148
3520 -3979 5794 -5339 118 -70 215 -126 217 -124 1 2 93 143 202 313 1014
1574 1535 2332 2142 3115 617 794 1238 1456 1841 1960 620 518 1296 911 1948
1131 1045 354 2124 340 3309 -42 94 -30 242 -90 363 -146 1016 -472 1744 -679
2460 -700 527 -15 893 59 1476 300 477 197 667 254 994 298 151 21 398 16 493
-10 248 -66 350 -226 333 -521 -11 -203 -65 -380 -196 -645 -183 -370 -451
-740 -785 -1083 -323 -333 -607 -544 -970 -723 -657 -322 -1370 -380 -2171
-174 -138 35 -290 90 -615 223 -362 148 -528 192 -723 193 -125 0 -137 -2
-248 -38 -175 -56 -393 -253 -429 -387 -32 -118 17 -233 161 -376 176 -177
252 -219 710 -405 2086 -842 4097 -1104 6005 -780 2565 435 4952 1898 7209
4417 87 98 162 175 167 172 5 -3 6 3 2 12 -4 10 -2 15 3 11 8 -5 144 257 144
276 0 3 20 47 44 99 24 51 61 134 81 183 21 50 53 120 71 158 19 37 32 67 30
67 -3 0 13 42 35 93 22 50 56 133 76 182 20 50 39 92 42 95 3 3 7 12 9 20 4
17 148 387 160 410 4 8 17 41 27 73 11 31 23 57 28 57 4 0 5 5 2 10 -3 6 -1
10 5 10 6 0 9 4 6 8 -3 5 13 58 36 118 60 162 93 254 144 404 26 74 51 140 55
146 5 6 6 14 2 17 -3 4 -1 7 6 7 7 0 10 4 7 9 -5 7 77 266 101 321 3 8 7 20 9
27 6 29 27 89 35 99 5 6 6 14 3 17 -3 3 -2 12 2 19 5 7 9 19 10 26 2 8 6 21
10 30 4 9 8 22 10 29 3 17 64 216 71 233 3 8 7 20 8 25 2 6 6 24 11 40 4 17
-25 -31 -63 -105 -191 -365 -461 -782 -832 -1285 -1152 -1560 -2864 -3369
-3717 -3928 -211 -139 -363 -202 -465 -195 -77 6 -102 25 -143 110 -114 239
-81 594 85 919 101 196 229 354 434 534 77 67 195 179 263 249 753 780 2476
2964 3219 4081 159 240 210 326 286 486 77 161 137 244 222 304 93 67 160 87
270 83 79 -3 100 -8 166 -40 87 -41 188 -129 254 -223 80 -113 174 -329 176
-407 1 -29 3 -26 15 22 8 30 17 62 21 70 3 8 8 24 10 34 7 40 35 141 41 150 3
6 7 19 8 31 1 11 14 65 29 120 26 102 62 249 71 296 2 14 20 90 40 170 19 79
37 155 39 169 3 22 16 79 31 135 3 11 7 31 9 45 2 14 11 59 20 100 9 41 19 89
22 105 2 17 13 71 24 120 11 50 21 104 24 121 3 18 12 67 21 110 8 44 17 93
20 109 3 17 12 66 21 110 9 44 17 89 18 100 1 11 3 20 4 20 1 0 4 22 7 50 3
27 9 52 13 55 5 3 7 13 5 24 -1 10 4 53 12 95 8 42 15 87 15 100 -1 12 2 28 6
35 4 6 8 22 8 36 2 35 66 482 72 500 3 8 7 36 9 62 2 27 12 119 23 205 11 87
30 244 42 348 11 105 23 204 25 220 2 17 4 37 5 45 0 8 7 89 15 180 15 174 17
200 34 430 6 80 12 170 15 200 2 30 7 107 9 170 3 63 8 153 11 200 13 185 14
296 18 1125 3 473 1 892 -3 930 -5 39 -11 147 -14 240 -3 94 -10 235 -15 315
-6 80 -13 190 -16 245 -3 55 -8 114 -10 130 -3 17 -7 76 -9 132 -2 56 -7 107
-11 113 -3 6 -5 23 -4 38 1 15 -1 50 -4 77 -4 28 -9 84 -12 125 -3 41 -8 86
-10 100 -2 14 -6 54 -10 90 -4 36 -8 81 -10 101 -3 20 -7 60 -10 90 -4 30 -8
77 -10 104 -2 28 -6 59 -8 70 -3 11 -10 63 -16 115 -14 110 -20 153 -26 195
-3 17 -7 48 -9 70 -3 22 -21 150 -41 285 -20 134 -38 256 -40 270 -2 14 -13
77 -24 140 -22 120 -32 188 -36 230 -2 14 -5 32 -8 40 -10 28 -37 193 -32 198
3 3 1 10 -4 16 -8 9 -39 166 -46 231 -1 11 -5 27 -8 35 -3 8 -8 29 -11 45 -2
17 -16 83 -30 148 -14 65 -25 121 -24 125 1 4 -4 25 -10 47 -6 22 -13 51 -16
65 -2 14 -16 74 -30 135 -15 60 -28 121 -30 135 -2 14 -6 32 -9 40 -3 8 -8 29
-11 45 -3 17 -9 46 -15 65 -6 19 -12 46 -15 60 -3 14 -7 34 -10 45 -3 11 -21
85 -42 165 -20 80 -38 154 -41 165 -5 22 -5 24 -21 80 -6 22 -13 51 -16 65 -3
14 -9 40 -15 58 -5 18 -10 34 -11 37 0 3 -3 10 -5 17 -3 7 -18 63 -34 123 -44
168 -200 698 -237 807 -8 26 -16 53 -18 60 -1 7 -5 19 -9 26 -5 6 -6 16 -3 21
4 5 3 11 -1 13 -5 1 -43 111 -86 243 -43 132 -87 263 -98 290 -10 28 -21 59
-24 70 -2 11 -25 76 -51 145 -25 69 -47 130 -49 135 -1 6 -5 17 -9 25 -11 27
-67 184 -71 201 -2 9 -8 25 -14 35 -6 11 -47 114 -91 229 -76 198 -145 371
-176 441 -8 18 -34 81 -58 142 -24 60 -52 124 -60 141 -9 17 -14 31 -12 31 2
0 -13 36 -35 80 -21 44 -39 83 -39 86 0 6 -168 376 -262 579 -79 170 -450 917
-459 925 -3 3 -39 70 -80 150 -41 80 -77 147 -80 150 -3 3 -28 48 -55 100 -27
52 -53 99 -57 105 -18 23 -237 416 -237 425 0 6 -3 10 -8 10 -4 0 -19 21 -32
47 -14 26 -40 69 -57 97 -18 28 -33 56 -33 63 0 7 -3 13 -8 13 -4 0 -19 21
-32 48 -14 26 -28 49 -31 52 -4 3 -17 25 -30 50 -13 25 -31 54 -41 64 -10 11
-21 29 -24 39 -4 11 -11 25 -16 31 -19 23 -100 155 -98 162 1 4 -2 10 -7 13
-9 6 -63 87 -217 328 -38 60 -76 119 -85 132 -9 13 -21 31 -26 40 -27 43 -91
137 -100 147 -5 7 -45 63 -87 125 -165 245 -444 638 -515 725 -18 23 -33 46
-33 53 0 6 -4 11 -8 11 -10 0 -82 96 -82 110 0 5 -4 10 -8 10 -4 0 -37 39 -72
88 -36 48 -71 93 -78 101 -7 7 -38 47 -68 88 -30 41 -78 102 -105 136 -28 34
-112 139 -187 232 -75 94 -142 176 -149 183 -7 7 -29 34 -50 60 -21 26 -43 53
-50 60 -7 7 -29 34 -50 60 -21 26 -41 49 -44 52 -3 3 -39 43 -79 90 -79 93
-80 94 -199 231 -92 104 -93 106 -241 269 -332 366 -933 984 -1201 1235 -41
38 -119 112 -175 165 -55 52 -142 133 -194 180 -51 47 -98 90 -104 95 -28 25
-195 174 -226 202 -562 490 -955 810 -1480 1203 -431 323 -778 568 -1188 838
-3469 2283 -7410 3605 -11557 3877 -457 30 -1376 59 -1645 53 -47 -2 -168 -4
-270 -5z m7880 -15428 c58 -278 170 -697 245 -914 38 -113 23 -96 -25 26 -140
355 -249 788 -300 1191 -31 236 -22 259 15 42 19 -107 48 -262 65 -345z
m12060 -14881 c247 -69 406 -342 387 -664 -12 -196 -42 -262 -279 -609 -728
-1066 -1498 -2017 -2442 -3016 -265 -279 -803 -815 -1106 -1099 -331 -311
-1123 -1025 -1315 -1185 -471 -392 -812 -591 -1015 -591 -82 0 -123 15 -167
61 -194 205 17 719 606 1479 295 381 511 621 1556 1730 610 647 738 785 996
1070 798 885 1429 1702 1927 2496 l83 131 87 50 c268 152 490 200 682 147z"/>
</g>
</svg>
